<svg version="1.1" xmlns="http://www.w3.org/2000/svg" style="display: block;" viewBox="0 0 2048 2048" width="1254" height="1254" preserveAspectRatio="none">
<defs>
	<linearGradient id="Gradient1" gradientUnits="userSpaceOnUse" x1="539.095" y1="1376" x2="877.15" y2="1350.49">
		<stop class="stop0" offset="0" stop-opacity="1" stop-color="rgb(237,1,104)"/>
		<stop class="stop1" offset="1" stop-opacity="1" stop-color="rgb(178,1,129)"/>
	</linearGradient>
	<linearGradient id="Gradient2" gradientUnits="userSpaceOnUse" x1="565.736" y1="1000.18" x2="975.777" y2="1010.55">
		<stop class="stop0" offset="0" stop-opacity="1" stop-color="rgb(232,1,108)"/>
		<stop class="stop1" offset="1" stop-opacity="1" stop-color="rgb(164,1,133)"/>
	</linearGradient>
	<linearGradient id="Gradient3" gradientUnits="userSpaceOnUse" x1="872.918" y1="1182.97" x2="1526.54" y2="1390.53">
		<stop class="stop0" offset="0" stop-opacity="1" stop-color="rgb(181,0,128)"/>
		<stop class="stop1" offset="1" stop-opacity="1" stop-color="rgb(67,4,156)"/>
	</linearGradient>
	<linearGradient id="Gradient4" gradientUnits="userSpaceOnUse" x1="507.318" y1="596.785" x2="881.653" y2="877.993">
		<stop class="stop0" offset="0" stop-opacity="1" stop-color="rgb(246,1,101)"/>
		<stop class="stop1" offset="1" stop-opacity="1" stop-color="rgb(176,1,131)"/>
	</linearGradient>
</defs>
<path transform="translate(0,0)" fill="rgb(255,255,255)" d="M 0 0 L 2048 0 L 2048 2048 L 0 2048 L 0 0 z"/>
<path transform="translate(0,0)" fill="url(#Gradient4)" d="M 735.15 517.001 C 745.159 516.419 769.318 521.76 780.35 523.783 L 859.526 538.313 C 927.212 550.234 994.815 562.62 1062.33 575.469 C 1072.43 577.469 1093.56 578.468 1100.56 584.464 C 1101.44 586.825 1101.89 587.203 1100.71 590.158 C 1098.78 594.986 1092.25 599.975 1088.04 602.812 C 1065.46 618.054 1042.56 633.035 1019.84 648.061 C 981.759 673.035 944.01 698.512 906.603 724.486 L 819.931 784.593 C 810.877 790.89 785.742 809.234 777.435 812.933 C 755.115 809.695 721.614 801.519 698.815 796.702 L 562.832 768.47 L 518.219 759.105 C 511.792 757.725 499.257 754.59 493.458 754.174 C 491.437 756.234 492.201 756.787 492.164 760.75 L 492.133 862.001 C 516.204 876.259 518.591 898.398 495.696 915.169 C 500.814 926.205 520.963 998.185 519.07 1011.35 C 517.278 1023.83 469.971 1021 455.485 1017.57 C 454.095 1011.22 449.89 998.889 450.584 992.435 C 452.577 973.886 458.262 955.506 462.211 937.268 C 463.892 929.506 466.165 922.109 470.383 915.272 C 470.175 915.119 469.966 914.966 469.758 914.814 L 468.73 914.033 C 446.833 897.594 451.126 874.778 473.99 861.999 L 474.017 749.532 C 462.658 747.269 413.027 740.003 408.05 732.181 C 407.198 730.842 407.411 729.334 407.898 727.862 C 409.124 724.158 413.945 721.275 417.029 719.139 C 436.498 705.653 457.003 693.425 477.016 680.761 L 570.683 621.131 L 675.579 554.391 C 694.682 542.257 715.702 528.329 735.15 517.001 z"/>
<path transform="translate(0,0)" fill="url(#Gradient3)" d="M 1377.51 1141 L 1455.05 1140.93 L 1454.92 1320.13 C 1465.37 1320.13 1539.58 1319.1 1544.55 1321.51 C 1547.99 1327.69 1544.42 1341.48 1542.52 1348.42 C 1533.13 1382.7 1501.47 1406.59 1466.6 1409.63 C 1454.53 1410.68 1440.49 1410 1428.2 1409.99 L 1358.71 1409.93 L 1144.46 1409.92 L 969.535 1409.92 L 915.389 1409.93 C 908.676 1409.93 896.018 1410.4 889.995 1409.77 C 888.127 1408.21 888.718 1409.14 888.013 1407.14 L 889.182 1406.24 L 889.174 1404.93 C 886.033 1403.27 871.082 1404.48 865.718 1404.4 C 862.174 1399.09 865.197 1390.96 865.666 1384.66 C 867.177 1364.39 853.883 1336.46 875.264 1322.31 C 885.918 1322.12 898.274 1320.9 907.93 1324.9 C 908.468 1329.24 914.284 1338.12 917.438 1341.25 C 929.129 1353.37 939.884 1356.83 956.608 1356.86 C 1005.29 1356.96 1054.41 1356.88 1103.06 1356.9 C 1122.41 1356.92 1137.12 1357.25 1151.06 1342.49 C 1163.01 1329.84 1164.55 1321.21 1164.31 1305.14 L 869.143 1304.99 C 863.759 1301.57 860.536 1304.19 855.796 1300.81 L 857.731 1297.05 C 861.222 1290.32 858.211 1275.32 857.502 1267.53 C 857.267 1264.95 855.17 1264.42 852.964 1263.16 C 852.772 1259.53 852.244 1256.34 851.716 1252.74 C 858.677 1251.87 870.674 1251.09 876.706 1249.83 L 878.594 1249.42 L 1208.86 1249.29 L 1307.02 1249.36 C 1323.7 1249.36 1341.68 1249.81 1358.3 1248.59 C 1364.54 1248.14 1372.49 1243.08 1377.22 1239 C 1377.17 1207.13 1376.49 1172.66 1377.51 1141 z"/>
<path transform="translate(0,0)" fill="url(#Gradient2)" d="M 781.333 833.637 C 791.605 829.372 818.587 809.433 829.312 802.006 L 917.21 741.039 C 932.227 730.651 950.145 717.498 965.523 708.185 C 970.927 729.522 986.51 790.502 982.524 808.978 C 974.505 846.151 937.345 877.465 906.855 896.735 C 838.387 940.009 750.769 953.73 672.019 936.291 L 671.939 1135.48 L 671.899 1189.14 C 671.896 1199.44 671.554 1210.6 672.697 1220.77 C 673.95 1231.91 686.875 1247.29 698.404 1248.4 C 717.483 1250.25 737.772 1249.38 757.06 1249.38 L 878.594 1249.42 L 876.706 1249.83 C 870.674 1251.09 858.677 1251.87 851.716 1252.74 C 852.244 1256.34 852.772 1259.53 852.964 1263.16 C 855.17 1264.42 857.267 1264.95 857.502 1267.53 C 858.211 1275.32 861.222 1290.32 857.731 1297.05 L 855.796 1300.81 C 860.536 1304.19 863.759 1301.57 869.143 1304.99 L 682.945 1305.04 C 660.255 1304.88 644.537 1299.13 628.34 1283.15 C 603.974 1259.12 607.294 1228.78 607.313 1197.43 L 607.304 1135.97 L 607.466 907.494 C 600.163 900.805 593.802 894.07 589.414 885.078 C 582.452 870.809 571.94 809.634 568.336 790.34 C 583.064 792.2 611.72 799.22 627.068 802.488 L 728 823.527 C 743.545 826.796 765.993 832.115 781.333 833.637 z"/>
<path transform="translate(0,0)" fill="rgb(128,0,134)" d="M 1240.7 711.953 C 1268.75 711.216 1298.46 711.841 1326.64 711.684 C 1342.23 711.597 1377.72 710.45 1391.57 713.495 C 1404.6 716.294 1416.61 722.625 1426.28 731.795 C 1455.75 760.173 1447.41 792.654 1448.21 829.02 C 1448.82 856.661 1449.16 883.865 1448.87 911.562 L 1384.55 911.669 C 1384.02 886.336 1384.76 860.916 1384.56 835.614 C 1384.48 825.677 1385.3 804.998 1383.24 795.902 C 1381.77 789.322 1378.42 783.312 1373.59 778.608 C 1361.91 767.373 1346.96 769.106 1332.03 768.963 C 1320.21 768.85 1308.36 768.968 1296.54 768.983 L 1176.05 769.034 L 999.292 769.119 C 995.399 749.88 990.684 730.921 987.039 711.672 L 1153.86 711.722 C 1179.49 711.704 1215.83 710.514 1240.7 711.953 z"/>
<path transform="translate(0,0)" fill="rgb(196,0,121)" d="M 987.039 711.672 L 1153.86 711.722 C 1179.49 711.704 1215.83 710.514 1240.7 711.953 L 1239.05 713.015 C 1203.64 714.871 1166.64 711.367 1131.09 713.287 C 1127.65 713.473 1123.23 714.816 1120.38 716.847 C 1121.75 718.57 1120.96 717.705 1122.79 719.395 C 1121.78 724.042 1111.71 731.469 1108.44 736.679 C 1105.39 741.536 1104.45 745.455 1101.6 749.855 C 1098.87 754.069 1089.76 761.81 1088.49 766.11 C 1091.81 768.495 1173.22 764.082 1180.25 767.58 C 1178.82 768.099 1177.51 768.591 1176.05 769.034 L 999.292 769.119 C 995.399 749.88 990.684 730.921 987.039 711.672 z"/>
<path transform="translate(0,0)" fill="url(#Gradient1)" d="M 888.013 1407.14 C 884.547 1405.59 854.824 1406.82 848.76 1406.62 C 848.522 1406.62 848.067 1409.85 845.598 1409.87 C 826.546 1410.07 802.578 1409.98 783.943 1409.99 L 669.162 1410.02 C 636.147 1410.02 599.107 1414.79 571.012 1395.12 C 552.034 1381.87 539.089 1361.63 535.02 1338.84 C 534.319 1334.72 533.123 1325.04 535.498 1321.72 C 539.867 1320.51 545.657 1320.2 550.228 1320.2 C 637.253 1320.19 724.338 1320.19 811.359 1320.15 L 879.127 1320.13 C 886.618 1320.12 895.508 1320 903.097 1320.2 C 905.675 1320.26 906.588 1322.75 907.93 1324.9 C 898.274 1320.9 885.918 1322.12 875.264 1322.31 C 853.883 1336.46 867.177 1364.39 865.666 1384.66 C 865.197 1390.96 862.174 1399.09 865.718 1404.4 C 871.082 1404.48 886.033 1403.27 889.174 1404.93 L 889.182 1406.24 L 888.013 1407.14 z"/>
<path transform="translate(0,0)" fill="rgb(128,0,134)" d="M 1448.06 931.928 C 1475.02 931.37 1503.79 931.865 1530.9 931.844 L 1530.82 1013.89 L 1448.79 1013.95 L 1448.94 1039.33 L 1448.97 1055.94 L 1383.61 1056.01 L 1383.44 989.352 L 1447.94 989.274 L 1448.06 931.928 z"/>
<path transform="translate(0,0)" fill="rgb(128,0,134)" d="M 1462.09 1058.21 C 1489.42 1057.79 1517.46 1058.07 1544.85 1058.04 L 1544.81 1141.1 L 1461.97 1141.12 L 1462.09 1058.21 z"/>
<path transform="translate(0,0)" fill="rgb(128,0,134)" d="M 1064.89 937.081 C 1074.12 936.687 1083.35 938.292 1085.94 948.334 C 1084.37 956.766 1073.22 983.953 1069.67 993.077 L 1036.29 1078.77 L 1017.96 1126.01 C 1014.37 1135.27 1011.72 1147.35 1003.67 1152.99 C 1002.84 1153.13 1002.01 1153.27 1001.18 1153.37 C 996.391 1153.98 990.722 1152.86 986.92 1149.7 C 984.816 1147.95 983.048 1144.91 983.121 1142.1 C 983.28 1136.02 1051.27 960.271 1057.84 945.847 C 1059.62 941.935 1061.52 939.736 1064.89 937.081 z"/>
<path transform="translate(0,0)" fill="rgb(128,0,134)" d="M 945.447 977.105 C 961.294 974.97 971.259 988.595 961.114 1001.29 C 957.397 1005.94 944.209 1014.17 938.772 1017.96 L 899.959 1045.02 C 919.394 1059.39 941.237 1072.69 959.885 1087.82 C 971.396 1097.17 964.493 1114.58 946.223 1114.07 C 934.146 1106.54 868.882 1061.82 863.486 1054.48 C 861.048 1051.17 860.268 1045.87 861.133 1041.9 C 861.95 1038.15 864.347 1035.25 867.094 1032.67 C 873.187 1026.94 881.134 1022.84 887.9 1017.9 C 906.851 1004.05 925.815 989.974 945.447 977.105 z"/>
<path transform="translate(0,0)" fill="rgb(128,0,134)" d="M 1121.26 976.035 C 1134.49 977.853 1164.35 1003.76 1177.65 1012.42 C 1226.28 1044.07 1221.81 1047.39 1180.97 1076.04 C 1164.6 1087.46 1148.31 1098.99 1132.1 1110.64 C 1114.17 1121.68 1100.84 1100.41 1112.7 1088.23 C 1117.06 1083.76 1128.56 1076.35 1134.11 1072.44 L 1172.87 1045.12 C 1160.27 1036.06 1113.62 1007.09 1109.08 995.542 C 1107.82 992.355 1107.56 988.881 1108.97 985.702 C 1111.24 980.534 1116.29 977.987 1121.26 976.035 z"/>
<path transform="translate(0,0)" fill="rgb(128,0,134)" d="M 1308.04 1067.12 L 1368.01 1067.1 L 1367.93 1128.05 L 1307.88 1128.1 L 1308.04 1067.12 z"/>
<path transform="translate(0,0)" fill="rgb(128,0,134)" d="M 1545.24 861.358 L 1605.38 861.401 C 1605.59 881.594 1605.64 901.788 1605.54 921.982 L 1545.16 921.971 C 1545.06 901.937 1544.71 881.341 1545.24 861.358 z"/>
<path transform="translate(0,0)" fill="rgb(128,0,134)" d="M 1619.87 972.944 C 1637.89 972.759 1655.91 972.807 1673.93 973.087 L 1679.85 981.157 C 1679.93 988.701 1681.01 1027.02 1678.8 1031.19 C 1660.13 1035.43 1639.64 1032.63 1619.8 1033.4 L 1619.87 972.944 z"/>
</svg>